<svg width="81" height="112" viewBox="0 0 81 112" fill="none" xmlns="http://www.w3.org/2000/svg">
<path d="M60.7778 0L80.5556 0.0455053C71.5454 17.4738 60.1819 38.9694 50.3532 55.659C60.3023 73.0316 70.3657 92.41 79.9958 110.128L79.2675 110.964C74.0372 111.559 66.0202 111.263 60.5672 111.236C53.6275 98.8837 47.2837 86.3192 40.1032 73.9999C33.2599 86.2792 26.5549 98.8552 19.8379 111.238L0.102273 111.187C9.01611 92.9817 20.3676 73.6726 29.811 55.5401C22.0949 39.3001 8.87171 16.9462 0 0.0685896L19.8018 0.0774171C26.0312 9.95982 33.9941 26.2583 40.2777 37.3975C47.2656 25.3233 53.6154 12.2936 60.7778 0Z" fill="white"/>
</svg>
